<svg width="32" height="32" viewBox="0 0 32 32" fill="none" xmlns="http://www.w3.org/2000/svg">
  <path d="M27 29H5C4.45 29 4 28.55 4 28V13.4142C4 13.149 4.10536 12.8946 4.29289 12.7071L15.2929 1.70711C15.6834 1.31658 16.3166 1.31658 16.7071 1.70711L27.7071 12.7071C27.8946 12.8946 28 13.149 28 13.4142V28C28 28.55 27.55 29 27 29Z" stroke="currentColor" stroke-width="2"/>
  <path d="M21 20C21 22.7614 18.7614 25 16 25C13.2386 25 11 22.7614 11 20C11 17.2386 13.2386 15 16 15C18.7614 15 21 17.2386 21 20Z" stroke="currentColor" stroke-width="2"/>
  <path d="M19 19L13 21" stroke="currentColor" stroke-width="2" stroke-linecap="round"/>
</svg> 