<svg width="32" height="32" viewBox="0 0 32 32" fill="none" xmlns="http://www.w3.org/2000/svg">
  <path d="M16 16C18.7614 16 21 13.7614 21 11C21 8.23858 18.7614 6 16 6C13.2386 6 11 8.23858 11 11C11 13.7614 13.2386 16 16 16Z" fill="currentColor"/>
  <path d="M24 17.5C25.933 17.5 27.5 15.933 27.5 14C27.5 12.067 25.933 10.5 24 10.5C22.067 10.5 20.5 12.067 20.5 14C20.5 15.933 22.067 17.5 24 17.5Z" fill="currentColor"/>
  <path d="M8 17.5C9.933 17.5 11.5 15.933 11.5 14C11.5 12.067 9.933 10.5 8 10.5C6.067 10.5 4.5 12.067 4.5 14C4.5 15.933 6.067 17.5 8 17.5Z" fill="currentColor"/>
  <path d="M16 17C12.5 17 5.5 18.75 5.5 22.25V26H26.5V22.25C26.5 18.75 19.5 17 16 17Z" fill="currentColor"/>
  <path d="M8 18.5C6 18.5 2 19.5 2 21.5V24H5V22.25C5 20.7 6.15 19.35 8 18.5Z" fill="currentColor"/>
  <path d="M24 18.5C25.85 19.35 27 20.7 27 22.25V24H30V21.5C30 19.5 26 18.5 24 18.5Z" fill="currentColor"/>
</svg> 